<svg width="13" height="28" viewBox="0 0 13 28" fill="none" xmlns="http://www.w3.org/2000/svg">
<path d="M0.0573425 25.8695C0.0576968 25.4278 0.217835 25.0043 0.502551 24.6921L8.26537 16.1708C8.50033 15.9129 8.68672 15.6068 8.81389 15.2699C8.94105 14.9329 9.0065 14.5718 9.0065 14.2071C9.0065 13.8424 8.94105 13.4812 8.81389 13.1443C8.68672 12.8073 8.50033 12.5012 8.26537 12.2433L0.512669 3.72755C0.236198 3.41332 0.0832164 2.99247 0.0866745 2.55564C0.0901326 2.1188 0.249754 1.70093 0.531158 1.39203C0.812562 1.08313 1.19323 0.907912 1.59119 0.904116C1.98914 0.90032 2.37252 1.06825 2.65878 1.37174L10.4115 9.88086C11.4539 11.0274 12.0394 12.5811 12.0394 14.201C12.0394 15.8208 11.4539 17.3745 10.4115 18.5211L2.64866 27.0424C2.4367 27.2752 2.16666 27.4339 1.87263 27.4984C1.57859 27.563 1.27373 27.5304 0.996518 27.405C0.719306 27.2795 0.482163 27.0667 0.315015 26.7934C0.147867 26.5201 0.0582049 26.1986 0.0573425 25.8695Z" fill="#AFAFAF"/>
</svg>
