<svg width="28" height="27" viewBox="0 0 28 27" fill="none" xmlns="http://www.w3.org/2000/svg">
<path d="M22.0675 6.2177H21.6217L17.8555 2.45141C17.5546 2.15055 17.0643 2.15055 16.7523 2.45141C16.4515 2.75227 16.4515 3.24255 16.7523 3.55455L19.4155 6.2177H8.58461L11.2477 3.55455C11.5486 3.2537 11.5486 2.76341 11.2477 2.45141C10.9469 2.15055 10.4566 2.15055 10.1446 2.45141L6.38946 6.2177H5.94375C4.94089 6.2177 2.85718 6.2177 2.85718 9.07027C2.85718 10.1511 3.08003 10.8643 3.54803 11.3323C3.81546 11.6108 4.13861 11.7557 4.48403 11.8337C4.80718 11.9117 5.15261 11.9228 5.48689 11.9228H22.5132C22.8586 11.9228 23.1817 11.9006 23.4937 11.8337C24.4298 11.6108 25.1429 10.9423 25.1429 9.07027C25.1429 6.2177 23.0592 6.2177 22.0675 6.2177Z" fill="#2A9F62"/>
<path d="M21.8557 13.3714H6.05512C5.36426 13.3714 4.84055 13.9843 4.95198 14.664L5.88797 20.3914C6.19997 22.308 7.03569 24.5143 10.7463 24.5143H16.9974C20.7525 24.5143 21.4211 22.6311 21.8223 20.5251L22.9477 14.6974C23.0814 14.0066 22.5577 13.3714 21.8557 13.3714ZM12.4511 20.5586C12.4511 20.9931 12.1057 21.3386 11.6823 21.3386C11.2477 21.3386 10.9023 20.9931 10.9023 20.5586V16.8814C10.9023 16.458 11.2477 16.1014 11.6823 16.1014C12.1057 16.1014 12.4511 16.458 12.4511 16.8814V20.5586ZM17.2203 20.5586C17.2203 20.9931 16.8748 21.3386 16.4403 21.3386C16.0168 21.3386 15.6603 20.9931 15.6603 20.5586V16.8814C15.6603 16.458 16.0168 16.1014 16.4403 16.1014C16.8748 16.1014 17.2203 16.458 17.2203 16.8814V20.5586Z" fill="#2A9F62"/>
</svg>
