<svg width="28" height="27" viewBox="0 0 28 27" fill="none" xmlns="http://www.w3.org/2000/svg">
<path d="M25.544 9.21514L25.2209 6.12857C24.7529 2.76342 23.2263 1.39285 19.9615 1.39285H17.3318H15.6826H12.2952H10.646H7.97176C4.69576 1.39285 3.18033 2.76342 2.70119 6.162L2.40033 9.22628C2.2889 10.4186 2.61205 11.5774 3.31405 12.48C4.1609 13.5831 5.46462 14.2071 6.91319 14.2071C8.31719 14.2071 9.66547 13.5051 10.5123 12.3797C11.27 13.5051 12.5626 14.2071 14 14.2071C15.4375 14.2071 16.6966 13.5386 17.4655 12.4243C18.3235 13.5274 19.6495 14.2071 21.0312 14.2071C22.5132 14.2071 23.8503 13.5497 24.686 12.3909C25.3546 11.4994 25.6555 10.374 25.544 9.21514Z" fill="#2A9F62"/>
<path d="M13.2756 18.564C11.8605 18.7088 10.7908 19.9123 10.7908 21.3386V24.3917C10.7908 24.6926 11.0359 24.9377 11.3368 24.9377H16.6519C16.9528 24.9377 17.1979 24.6926 17.1979 24.3917V21.7286C17.2091 19.3997 15.8385 18.2966 13.2756 18.564Z" fill="#2A9F62"/>
<path d="M24.4408 16.0457V19.3663C24.4408 22.4417 21.9448 24.9377 18.8694 24.9377C18.5685 24.9377 18.3234 24.6926 18.3234 24.3917V21.7286C18.3234 20.3023 17.8888 19.188 17.0419 18.4303C16.2954 17.7506 15.2814 17.4163 14.0222 17.4163C13.7437 17.4163 13.4651 17.4274 13.1642 17.4609C11.1808 17.6614 9.67651 19.3329 9.67651 21.3386V24.3917C9.67651 24.6926 9.43137 24.9377 9.13051 24.9377C6.05508 24.9377 3.55908 22.4417 3.55908 19.3663V16.068C3.55908 15.288 4.32794 14.7643 5.05222 15.0206C5.35308 15.1209 5.65394 15.1989 5.96594 15.2434C6.09965 15.2657 6.24451 15.288 6.37822 15.288C6.55651 15.3103 6.7348 15.3214 6.91308 15.3214C8.20565 15.3214 9.47594 14.8423 10.4788 14.0177C11.4371 14.8423 12.6851 15.3214 13.9999 15.3214C15.3259 15.3214 16.5517 14.8646 17.5099 14.04C18.5128 14.8534 19.7608 15.3214 21.0311 15.3214C21.2317 15.3214 21.4322 15.3103 21.6217 15.288C21.7554 15.2769 21.8779 15.2657 22.0005 15.2434C22.3459 15.1989 22.6579 15.0986 22.9699 14.9983C23.6942 14.7532 24.4408 15.288 24.4408 16.0457Z" fill="#2A9F62"/>
</svg>
