<svg width="24" height="25" viewBox="0 0 24 25" fill="none" xmlns="http://www.w3.org/2000/svg">
<path d="M8.81 2.5L5.19 6.13" stroke="#585858" stroke-width="2.5" stroke-miterlimit="10" stroke-linecap="round" stroke-linejoin="round"/>
<path d="M15.19 2.5L18.81 6.13" stroke="#585858" stroke-width="2.5" stroke-miterlimit="10" stroke-linecap="round" stroke-linejoin="round"/>
<path d="M2 8.35001C2 6.50001 2.99 6.35001 4.22 6.35001H19.78C21.01 6.35001 22 6.50001 22 8.35001C22 10.5 21.01 10.35 19.78 10.35H4.22C2.99 10.35 2 10.5 2 8.35001Z" stroke="#585858" stroke-width="2.5"/>
<path d="M9.76 14.5V18.05" stroke="#585858" stroke-width="2.5" stroke-linecap="round"/>
<path d="M14.36 14.5V18.05" stroke="#585858" stroke-width="2.5" stroke-linecap="round"/>
<path d="M3.5 10.5L4.91 19.14C5.23 21.08 6 22.5 8.86 22.5H14.89C18 22.5 18.46 21.14 18.82 19.26L20.5 10.5" stroke="#585858" stroke-width="2.5" stroke-linecap="round"/>
</svg>
