<svg width="25" height="25" viewBox="0 0 25 25" fill="none" xmlns="http://www.w3.org/2000/svg">
<g clip-path="url(#clip0_2098_4654)">
<path d="M4.56803 18.5H20.224C20.7059 18.5 21.1806 18.384 21.6081 18.1617C22.0356 17.9394 22.4033 17.6174 22.68 17.223C22.9567 16.8285 23.1344 16.3732 23.1979 15.8956C23.2615 15.418 23.209 14.9321 23.045 14.479L20.193 6.594C19.706 4.84171 18.6583 3.29719 17.2103 2.19667C15.7624 1.09615 13.9938 0.500212 12.175 0.5V0.5C10.2818 0.49997 8.44508 1.14559 6.96824 2.33026C5.49141 3.51493 4.46272 5.16781 4.05203 7.016L1.70203 14.616C1.56367 15.0647 1.53257 15.5396 1.61122 16.0025C1.68987 16.4654 1.87609 16.9034 2.15488 17.2812C2.43368 17.6591 2.79727 17.9662 3.21639 18.1779C3.63552 18.3895 4.09848 18.4999 4.56803 18.5Z" fill="#01794B"/>
<path d="M7.59987 20.4999C7.82938 21.6302 8.4426 22.6464 9.33561 23.3763C10.2286 24.1062 11.3465 24.505 12.4999 24.505C13.6532 24.505 14.7711 24.1062 15.6641 23.3763C16.5571 22.6464 17.1704 21.6302 17.3999 20.4999H7.59987Z" fill="#01794B"/>
</g>
<defs>
<clipPath id="clip0_2098_4654">
<rect width="24" height="24" fill="white" transform="translate(0.5 0.5)"/>
</clipPath>
</defs>
</svg>
