<svg width="28" height="27" viewBox="0 0 28 27" fill="none" xmlns="http://www.w3.org/2000/svg">
<g clip-path="url(#clip0_2132_1676)">
<path d="M0.62854 21.1715C0.630309 22.6486 1.21787 24.0647 2.26233 25.1092C3.30679 26.1536 4.72288 26.7412 6.19997 26.7429H21.8C23.2771 26.7412 24.6931 26.1536 25.7376 25.1092C26.7821 24.0647 27.3696 22.6486 27.3714 21.1715V11.1429H0.62854V21.1715ZM19.5714 16.1572C19.902 16.1572 20.2251 16.2553 20.5 16.4389C20.7749 16.6226 20.9891 16.8836 21.1156 17.189C21.2421 17.4944 21.2752 17.8305 21.2107 18.1547C21.1462 18.479 20.987 18.7768 20.7533 19.0105C20.5195 19.2443 20.2217 19.4035 19.8975 19.468C19.5732 19.5325 19.2372 19.4994 18.9318 19.3729C18.6264 19.2464 18.3653 19.0321 18.1817 18.7573C17.998 18.4824 17.9 18.1592 17.9 17.8287C17.9 17.3854 18.0761 16.9602 18.3895 16.6468C18.703 16.3333 19.1281 16.1572 19.5714 16.1572ZM14 16.1572C14.3305 16.1572 14.6537 16.2553 14.9286 16.4389C15.2034 16.6226 15.4177 16.8836 15.5442 17.189C15.6707 17.4944 15.7038 17.8305 15.6393 18.1547C15.5748 18.479 15.4156 18.7768 15.1818 19.0105C14.9481 19.2443 14.6503 19.4035 14.326 19.468C14.0018 19.5325 13.6658 19.4994 13.3603 19.3729C13.0549 19.2464 12.7939 19.0321 12.6102 18.7573C12.4266 18.4824 12.3285 18.1592 12.3285 17.8287C12.3285 17.3854 12.5046 16.9602 12.8181 16.6468C13.1315 16.3333 13.5567 16.1572 14 16.1572ZM8.42854 16.1572C8.75912 16.1572 9.08227 16.2553 9.35714 16.4389C9.632 16.6226 9.84623 16.8836 9.97274 17.189C10.0992 17.4944 10.1323 17.8305 10.0679 18.1547C10.0034 18.479 9.84417 18.7768 9.61042 19.0105C9.37667 19.2443 9.07885 19.4035 8.75462 19.468C8.43039 19.5325 8.09433 19.4994 7.78891 19.3729C7.4835 19.2464 7.22246 19.0321 7.0388 18.7573C6.85514 18.4824 6.75711 18.1592 6.75711 17.8287C6.75711 17.3854 6.93321 16.9602 7.24666 16.6468C7.56011 16.3333 7.98525 16.1572 8.42854 16.1572Z" fill="#2A9F62"/>
<path d="M21.8 2.22857H20.6857V1.11429C20.6857 0.818759 20.5683 0.535336 20.3593 0.326367C20.1503 0.117398 19.8669 0 19.5714 0C19.2759 0 18.9924 0.117398 18.7835 0.326367C18.5745 0.535336 18.4571 0.818759 18.4571 1.11429V2.22857H9.54283V1.11429C9.54283 0.818759 9.42543 0.535336 9.21646 0.326367C9.00749 0.117398 8.72407 0 8.42854 0C8.13301 0 7.84959 0.117398 7.64062 0.326367C7.43165 0.535336 7.31425 0.818759 7.31425 1.11429V2.22857H6.19997C4.72288 2.23034 3.30679 2.8179 2.26233 3.86236C1.21787 4.90682 0.630309 6.32291 0.62854 7.8L0.62854 8.91429H27.3714V7.8C27.3696 6.32291 26.7821 4.90682 25.7376 3.86236C24.6931 2.8179 23.2771 2.23034 21.8 2.22857Z" fill="#2A9F62"/>
</g>
<defs>
<clipPath id="clip0_2132_1676">
<rect width="26.7429" height="26.7429" fill="white" transform="translate(0.62854)"/>
</clipPath>
</defs>
</svg>
