<svg width="28" height="27" viewBox="0 0 28 27" fill="none" xmlns="http://www.w3.org/2000/svg">
<g clip-path="url(#clip0_2132_1562)">
<path d="M26.0803 4.54294C25.7668 4.1668 25.3744 3.86429 24.9309 3.65688C24.4874 3.44947 24.0037 3.34226 23.5141 3.34286H5.49828L5.45148 2.95174C5.35571 2.13878 4.96497 1.38922 4.35334 0.845161C3.74172 0.301106 2.95173 0.000380856 2.13314 0L1.88577 0C1.59024 0 1.30682 0.117398 1.09785 0.326367C0.888882 0.535336 0.771484 0.818759 0.771484 1.11429C0.771484 1.40981 0.888882 1.69324 1.09785 1.9022C1.30682 2.11117 1.59024 2.22857 1.88577 2.22857H2.13314C2.40607 2.22861 2.66949 2.32881 2.87344 2.51017C3.07739 2.69153 3.20769 2.94143 3.23963 3.21249L4.77288 16.2496C4.93206 17.6055 5.5835 18.8557 6.60355 19.763C7.6236 20.6703 8.94127 21.1715 10.3064 21.1714H21.9429C22.2384 21.1714 22.5219 21.054 22.7308 20.8451C22.9398 20.6361 23.0572 20.3527 23.0572 20.0571C23.0572 19.7616 22.9398 19.4782 22.7308 19.2692C22.5219 19.0603 22.2384 18.9429 21.9429 18.9429H10.3064C9.61675 18.9409 8.94455 18.7257 8.38198 18.3267C7.81942 17.9277 7.39403 17.3645 7.16414 16.7143H20.4464C21.7527 16.7144 23.0175 16.2555 24.0197 15.4177C25.022 14.58 25.6981 13.4168 25.9298 12.1312L26.8045 7.27963C26.8919 6.79826 26.8722 6.30359 26.7471 5.83065C26.6219 5.35772 26.3943 4.9181 26.0803 4.54294Z" fill="#2A9F62"/>
<path d="M8.57146 26.7435C9.80227 26.7435 10.8 25.7457 10.8 24.5149C10.8 23.2841 9.80227 22.2864 8.57146 22.2864C7.34066 22.2864 6.3429 23.2841 6.3429 24.5149C6.3429 25.7457 7.34066 26.7435 8.57146 26.7435Z" fill="#2A9F62"/>
<path d="M19.7143 26.7435C20.9451 26.7435 21.9429 25.7457 21.9429 24.5149C21.9429 23.2841 20.9451 22.2864 19.7143 22.2864C18.4835 22.2864 17.4857 23.2841 17.4857 24.5149C17.4857 25.7457 18.4835 26.7435 19.7143 26.7435Z" fill="#2A9F62"/>
</g>
<defs>
<clipPath id="clip0_2132_1562">
<rect width="26.7429" height="26.7429" fill="white" transform="translate(0.771484)"/>
</clipPath>
</defs>
</svg>
