<svg width="25" height="25" viewBox="0 0 25 25" fill="none" xmlns="http://www.w3.org/2000/svg">
<g clip-path="url(#clip0_2098_4714)">
<path d="M9.2 18.5H3.5C2.007 18.5 0.5 17.366 0.5 14.834V9.79395C0.521027 7.49612 1.38143 5.28526 2.91918 3.57769C4.45693 1.87013 6.56592 0.783682 8.849 0.52295C10.1374 0.429424 11.4308 0.614332 12.6413 1.06511C13.8518 1.51588 14.9512 2.22196 15.8646 3.13537C16.778 4.04877 17.4841 5.1481 17.9348 6.35865C18.3856 7.56919 18.5705 8.86259 18.477 10.151C18.2159 12.435 17.1286 14.5447 15.4198 16.0825C13.711 17.6203 11.4988 18.4802 9.2 18.5ZM20.5 9.57995H20.488C20.488 9.81695 20.488 10.054 20.476 10.292C20.09 15.7 15.147 20.278 9.584 20.481V20.496C10.2846 21.7111 11.2924 22.7206 12.5062 23.4234C13.7201 24.1261 15.0974 24.4974 16.5 24.5H21.5C22.2956 24.5 23.0587 24.1839 23.6213 23.6213C24.1839 23.0587 24.5 22.2956 24.5 21.5V16.5C24.4986 15.097 24.1282 13.7192 23.4262 12.5046C22.7241 11.29 21.715 10.2814 20.5 9.57995Z" fill="#01794B"/>
</g>
<defs>
<clipPath id="clip0_2098_4714">
<rect width="24" height="24" fill="white" transform="translate(0.5 0.5)"/>
</clipPath>
</defs>
</svg>
