<svg width="22" height="24" viewBox="0 0 22 24" fill="none" xmlns="http://www.w3.org/2000/svg">
<path d="M13.5001 24C13.2283 24.0004 12.9617 23.9264 12.7291 23.786L7.72906 20.786C7.50684 20.6528 7.3229 20.4644 7.19514 20.239C7.06739 20.0137 7.00018 19.7591 7.00006 19.5V14.335L1.03406 7.035C0.362307 6.26441 -0.00533106 5.27527 5.84264e-05 4.253C0.0013817 3.12544 0.449889 2.04444 1.24719 1.24714C2.0445 0.449831 3.1255 0.00132327 4.25306 0L17.7471 0C18.5669 0.000298442 19.3691 0.23748 20.0573 0.683007C20.7455 1.12853 21.2903 1.76343 21.6262 2.5113C21.962 3.25916 22.0746 4.08815 21.9504 4.8985C21.8262 5.70885 21.4705 6.46606 20.9261 7.079L15.0001 14.382V22.5C15.0001 22.8978 14.842 23.2794 14.5607 23.5607C14.2794 23.842 13.8979 24 13.5001 24ZM10.0001 18.65L12.0001 19.85V13.85C11.9998 13.5056 12.1181 13.1715 12.3351 12.904L18.6401 5.137C18.867 4.89815 18.9956 4.58247 19.0001 4.253C18.9995 3.92085 18.8673 3.60245 18.6325 3.36758C18.3976 3.13271 18.0792 3.00053 17.7471 3H4.25306C4.01154 3.00024 3.77524 3.07021 3.57253 3.20152C3.36983 3.33282 3.20936 3.51987 3.1104 3.74018C3.01144 3.96049 2.9782 4.20469 3.01469 4.44343C3.05117 4.68217 3.15582 4.9053 3.31606 5.086L9.66206 12.851C9.88076 13.1189 10.0002 13.4542 10.0001 13.8V18.65Z" fill="#AFAFAF" fill-opacity="0.65"/>
</svg>
