<svg width="24" height="25" viewBox="0 0 24 25" fill="none" xmlns="http://www.w3.org/2000/svg">
<g clip-path="url(#clip0_2132_1540)">
<path d="M14.5001 7.49939H9.50014C9.10232 7.49939 8.72079 7.65742 8.43948 7.93873C8.15818 8.22003 8.00014 8.60156 8.00014 8.99939C8.00014 9.39721 8.15818 9.77875 8.43948 10.0601C8.72079 10.3414 9.10232 10.4994 9.50014 10.4994H14.5001C14.898 10.4994 15.2795 10.3414 15.5608 10.0601C15.8421 9.77875 16.0001 9.39721 16.0001 8.99939C16.0001 8.60156 15.8421 8.22003 15.5608 7.93873C15.2795 7.65742 14.898 7.49939 14.5001 7.49939Z" fill="#585858"/>
<path d="M12.5001 12.5H9.50014C9.10232 12.5 8.72079 12.658 8.43948 12.9393C8.15818 13.2206 8.00014 13.6022 8.00014 14C8.00014 14.3978 8.15818 14.7794 8.43948 15.0607C8.72079 15.342 9.10232 15.5 9.50014 15.5H12.5001C12.898 15.5 13.2795 15.342 13.5608 15.0607C13.8421 14.7794 14.0001 14.3978 14.0001 14C14.0001 13.6022 13.8421 13.2206 13.5608 12.9393C13.2795 12.658 12.898 12.5 12.5001 12.5Z" fill="#585858"/>
<path d="M15.5 0.5H8.49999C7.04179 0.501588 5.64376 1.08156 4.61266 2.11267C3.58155 3.14377 3.00158 4.5418 2.99999 6V23C2.99992 23.2557 3.06523 23.5073 3.18972 23.7306C3.31421 23.954 3.49376 24.1419 3.71129 24.2764C3.92882 24.4108 4.17713 24.4874 4.43261 24.4989C4.68809 24.5104 4.94227 24.4564 5.17099 24.342L8.45299 22.7L11.253 24.3C11.4796 24.4294 11.736 24.4975 11.997 24.4975C12.258 24.4975 12.5144 24.4294 12.741 24.3L15.541 22.7L18.823 24.342C19.0519 24.4578 19.3068 24.5129 19.5631 24.5021C19.8194 24.4913 20.0687 24.415 20.2871 24.2804C20.5055 24.1457 20.6857 23.9573 20.8106 23.7332C20.9354 23.509 21.0006 23.2566 21 23V6C20.9984 4.5418 20.4184 3.14377 19.3873 2.11267C18.3562 1.08156 16.9582 0.501588 15.5 0.5V0.5ZM18 20.573L16.17 19.658C15.9491 19.5475 15.7044 19.4933 15.4576 19.5001C15.2108 19.5069 14.9694 19.5745 14.755 19.697L12 21.272L9.24499 19.7C9.03057 19.5775 8.78922 19.5099 8.54238 19.5031C8.29554 19.4963 8.05084 19.5505 7.82999 19.661L5.99999 20.573V6C5.99999 5.33696 6.26338 4.70107 6.73223 4.23223C7.20107 3.76339 7.83695 3.5 8.49999 3.5H15.5C16.163 3.5 16.7989 3.76339 17.2678 4.23223C17.7366 4.70107 18 5.33696 18 6V20.573Z" fill="#585858"/>
</g>
<defs>
<clipPath id="clip0_2132_1540">
<rect width="24" height="24" fill="white" transform="translate(0 0.5)"/>
</clipPath>
</defs>
</svg>
