<svg width="28" height="27" viewBox="0 0 28 27" fill="none" xmlns="http://www.w3.org/2000/svg">
<path d="M19.5714 20.0485V26.7342H24.0286C25.8748 26.7342 27.3714 25.2375 27.3714 23.3913V13.2279C27.3717 12.649 27.1467 12.0928 26.7441 11.6768L17.2749 1.43987C15.6041 -0.367887 12.7842 -0.47888 10.9764 1.19192C10.8906 1.27131 10.8078 1.354 10.7285 1.43987L1.27599 11.6735C0.86116 12.0912 0.628414 12.656 0.628571 13.2446V23.3913C0.628571 25.2375 2.12523 26.7342 3.97143 26.7342H8.42855V20.0485C8.44939 17.01 10.9026 14.5288 13.8645 14.4573C16.9255 14.3835 19.5481 16.907 19.5714 20.0485Z" fill="#2A9F62"/>
<path d="M14 16.7051C12.1538 16.7051 10.6571 18.2018 10.6571 20.048V26.7337H17.3428V20.048C17.3428 18.2018 15.8462 16.7051 14 16.7051Z" fill="#2A9F62"/>
</svg>
