<svg width="26" height="25" viewBox="0 0 26 25" fill="none" xmlns="http://www.w3.org/2000/svg">
<path d="M24.121 9.54763L16.536 1.96163C15.5973 1.02562 14.3257 0.5 13 0.5C11.6744 0.5 10.4028 1.02562 9.46401 1.96163L1.87901 9.54763C1.59944 9.82541 1.37778 10.1559 1.22689 10.52C1.07601 10.8841 0.99889 11.2745 1.00001 11.6686V21.4856C1.00001 22.2813 1.31608 23.0443 1.87869 23.6069C2.4413 24.1696 3.20436 24.4856 4.00001 24.4856H22C22.7957 24.4856 23.5587 24.1696 24.1213 23.6069C24.6839 23.0443 25 22.2813 25 21.4856V11.6686C25.0011 11.2745 24.924 10.8841 24.7731 10.52C24.6222 10.1559 24.4006 9.82541 24.121 9.54763ZM16 22.4856H10V18.5516C10 17.756 10.3161 16.9929 10.8787 16.4303C11.4413 15.8677 12.2044 15.5516 13 15.5516C13.7957 15.5516 14.5587 15.8677 15.1213 16.4303C15.6839 16.9929 16 17.756 16 18.5516V22.4856ZM23 21.4856C23 21.7508 22.8947 22.0052 22.7071 22.1927C22.5196 22.3803 22.2652 22.4856 22 22.4856H18V18.5516C18 17.2255 17.4732 15.9538 16.5355 15.0161C15.5979 14.0784 14.3261 13.5516 13 13.5516C11.6739 13.5516 10.4022 14.0784 9.46448 15.0161C8.5268 15.9538 8.00001 17.2255 8.00001 18.5516V22.4856H4.00001C3.7348 22.4856 3.48044 22.3803 3.29291 22.1927C3.10537 22.0052 3.00001 21.7508 3.00001 21.4856V11.6686C3.00094 11.4036 3.1062 11.1496 3.29301 10.9616L10.878 3.37863C11.4417 2.81756 12.2047 2.50257 13 2.50257C13.7953 2.50257 14.5583 2.81756 15.122 3.37863L22.707 10.9646C22.8931 11.1519 22.9983 11.4046 23 11.6686V21.4856Z" fill="#585858" stroke="#585858"/>
</svg>
