<svg width="8" height="8" viewBox="0 0 8 8" fill="none" xmlns="http://www.w3.org/2000/svg">
<path d="M3.8144 4.90445L3.80247 4.9045L3.79267 4.90445H3.8144Z" fill="#01794B"/>
<path d="M2.35116 3.19921C2.35114 3.19481 2.35116 3.19042 2.35121 3.18603V3.72034C2.35116 3.71595 2.35114 3.71156 2.35116 3.70717V3.19921Z" fill="#01794B"/>
<path fill-rule="evenodd" clip-rule="evenodd" d="M4.6036 6.64608H5.68918C5.80466 6.64608 5.9154 6.69195 5.99705 6.77361C6.07871 6.85526 6.12458 6.966 6.12458 7.08148C6.12458 7.19695 6.07871 7.30769 5.99705 7.38935C5.9154 7.471 5.80466 7.51687 5.68918 7.51687H1.91576C1.80029 7.51687 1.68954 7.471 1.60789 7.38935C1.52624 7.30769 1.48037 7.19695 1.48037 7.08148C1.48037 6.966 1.52624 6.85526 1.60789 6.77361C1.68954 6.69195 1.80029 6.64608 1.91576 6.64608H3.00425C2.90533 6.5871 2.81349 6.51698 2.73053 6.43709L1.76163 5.53728C1.21336 4.98994 0.904181 4.24772 0.901733 3.47301C0.899285 2.6983 1.20377 1.95415 1.74857 1.40335C2.01761 1.13262 2.33753 0.917773 2.68992 0.771161C3.04231 0.62455 3.42022 0.549072 3.80189 0.549072C4.18357 0.549072 4.56147 0.62455 4.91386 0.771161C5.26625 0.917773 5.58618 1.13262 5.85521 1.40335C6.39882 1.9515 6.70383 2.69223 6.70383 3.46422C6.70383 4.23621 6.39882 4.97694 5.85521 5.52509L4.86484 6.44493C4.78548 6.52145 4.69786 6.58891 4.6036 6.64608ZM1.77137 3.46523C1.77137 4.00675 1.98529 4.52634 2.36654 4.91089L3.33196 5.80635C3.45549 5.92906 3.62209 5.99865 3.7962 6.00028C3.97032 6.00191 4.13818 5.93544 4.26399 5.81506L5.25089 4.8987C5.62756 4.51344 5.83743 3.99538 5.83509 3.45658C5.83276 2.91778 5.6184 2.40156 5.2384 2.01958C5.05038 1.83003 4.8267 1.67959 4.58025 1.57692C4.33379 1.47425 4.06945 1.42139 3.80247 1.42139C3.53549 1.42139 3.27115 1.47425 3.0247 1.57692C2.77825 1.67959 2.55456 1.83003 2.36654 2.01958C1.98529 2.40413 1.77137 2.92372 1.77137 3.46523Z" fill="#01794B"/>
<path fill-rule="evenodd" clip-rule="evenodd" d="M5.06024 3.51159C5.06024 3.83442 4.93295 4.14424 4.70598 4.37382L4.26674 4.78283C4.15516 4.892 4.00515 4.95295 3.84906 4.95255C3.69296 4.95214 3.54327 4.89041 3.43226 4.78065L2.99882 4.37684C2.77049 4.14756 2.64204 3.83733 2.64145 3.51375C2.64086 3.19017 2.76819 2.87947 2.99568 2.64936C3.10749 2.53619 3.24065 2.44634 3.38744 2.38502C3.53424 2.32369 3.69174 2.29211 3.85083 2.29211C4.00992 2.29211 4.16743 2.32369 4.31422 2.38502C4.46101 2.44634 4.59417 2.53619 4.70598 2.64936C4.93295 2.87895 5.06024 3.18876 5.06024 3.51159ZM3.24614 3.62053V3.25694C3.24614 3.25783 3.24614 3.25872 3.24614 3.25962V3.6182C3.24614 3.61898 3.24614 3.61975 3.24614 3.62053ZM3.84472 2.77591H3.85682C3.8548 2.77588 3.85279 2.77586 3.85077 2.77586C3.84875 2.77586 3.84674 2.77588 3.84472 2.77591Z" fill="#01794B"/>
</svg>
