<svg width="24" height="24" viewBox="0 0 24 24" fill="none" xmlns="http://www.w3.org/2000/svg">
<g clip-path="url(#clip0_2098_1342)">
<path d="M22.8531 1.14795C22.1733 0.469151 21.2518 0.0878906 20.2911 0.0878906C19.3304 0.0878906 18.409 0.469151 17.7291 1.14795L1.46514 17.412C0.999388 17.8751 0.630099 18.426 0.378635 19.0327C0.127171 19.6395 -0.00147591 20.2901 0.000137052 20.947V23C0.000137052 23.2652 0.105494 23.5195 0.29303 23.7071C0.480567 23.8946 0.734921 24 1.00014 24H3.05314C3.7099 24.0018 4.36051 23.8734 4.96729 23.6221C5.57408 23.3708 6.12499 23.0016 6.58814 22.536L22.8531 6.27095C23.5316 5.59115 23.9127 4.66992 23.9127 3.70945C23.9127 2.74899 23.5316 1.82776 22.8531 1.14795ZM5.17414 21.122C4.61014 21.6822 3.8481 21.9977 3.05314 22H2.00014V20.947C1.99913 20.5529 2.07629 20.1625 2.22717 19.7984C2.37806 19.4343 2.59965 19.1038 2.87914 18.826L15.2221 6.48295L17.5221 8.78295L5.17414 21.122ZM21.4381 4.85695L18.9321 7.36395L16.6321 5.06895L19.1391 2.56195C19.2902 2.41126 19.4694 2.29179 19.6666 2.21036C19.8638 2.12893 20.0751 2.08714 20.2884 2.08738C20.5017 2.08761 20.713 2.12986 20.91 2.21172C21.107 2.29357 21.2859 2.41343 21.4366 2.56445C21.5873 2.71547 21.7068 2.8947 21.7882 3.09189C21.8697 3.28908 21.9114 3.50038 21.9112 3.71372C21.911 3.92706 21.8687 4.13827 21.7869 4.33529C21.705 4.5323 21.5852 4.71126 21.4341 4.86195L21.4381 4.85695Z" fill="#585858"/>
</g>
<defs>
<clipPath id="clip0_2098_1342">
<rect width="24" height="24" fill="white"/>
</clipPath>
</defs>
</svg>
