<svg width="20" height="20" viewBox="0 0 20 20" fill="none" xmlns="http://www.w3.org/2000/svg">
<g clip-path="url(#clip0_2098_1353)">
<path d="M10 0C8.02219 0 6.08879 0.58649 4.4443 1.6853C2.79981 2.78412 1.51809 4.3459 0.761209 6.17317C0.00433286 8.00043 -0.193701 10.0111 0.192152 11.9509C0.578004 13.8907 1.53041 15.6725 2.92894 17.0711C4.32746 18.4696 6.10929 19.422 8.0491 19.8079C9.98891 20.1937 11.9996 19.9957 13.8268 19.2388C15.6541 18.4819 17.2159 17.2002 18.3147 15.5557C19.4135 13.9112 20 11.9778 20 10C19.9971 7.34872 18.9426 4.80684 17.0679 2.9321C15.1932 1.05736 12.6513 0.00286757 10 0V0ZM10 18.3333C8.35183 18.3333 6.74066 17.8446 5.37025 16.9289C3.99984 16.0132 2.93174 14.7117 2.30101 13.189C1.67028 11.6663 1.50525 9.99076 1.82679 8.37425C2.14834 6.75774 2.94201 5.27288 4.10745 4.10744C5.27289 2.94201 6.75774 2.14833 8.37425 1.82679C9.99076 1.50525 11.6663 1.67027 13.189 2.301C14.7118 2.93173 16.0132 3.99984 16.9289 5.37025C17.8446 6.74066 18.3333 8.35182 18.3333 10C18.3309 12.2094 17.4522 14.3276 15.8899 15.8899C14.3276 17.4522 12.2094 18.3309 10 18.3333Z" fill="#AFAFAF"/>
<path d="M10.5976 4.21891C10.1171 4.13135 9.62315 4.15048 9.1508 4.27494C8.67845 4.3994 8.23923 4.62616 7.86422 4.93916C7.48921 5.25216 7.18757 5.64376 6.98065 6.08624C6.77373 6.52872 6.66659 7.01127 6.66681 7.49974C6.66681 7.72075 6.75461 7.93271 6.91089 8.08899C7.06717 8.24527 7.27913 8.33307 7.50014 8.33307C7.72115 8.33307 7.93312 8.24527 8.0894 8.08899C8.24568 7.93271 8.33347 7.72075 8.33347 7.49974C8.33326 7.25455 8.38715 7.01234 8.4913 6.79037C8.59545 6.5684 8.74728 6.37215 8.93599 6.2156C9.12469 6.05905 9.34561 5.94606 9.58299 5.88469C9.82037 5.82333 10.0684 5.81509 10.3093 5.86057C10.6385 5.92448 10.9412 6.08506 11.1787 6.32181C11.4162 6.55857 11.5777 6.86074 11.6426 7.18974C11.7082 7.53507 11.6629 7.8923 11.5133 8.21035C11.3636 8.5284 11.1172 8.79099 10.8093 8.96057C10.2994 9.25596 9.87813 9.68267 9.58924 10.1962C9.30036 10.7098 9.15448 11.2915 9.16681 11.8806V12.4997C9.16681 12.7208 9.2546 12.9327 9.41088 13.089C9.56716 13.2453 9.77912 13.3331 10.0001 13.3331C10.2212 13.3331 10.4331 13.2453 10.5894 13.089C10.7457 12.9327 10.8335 12.7208 10.8335 12.4997V11.8806C10.823 11.5906 10.8891 11.303 11.0252 11.0466C11.1612 10.7903 11.3624 10.5744 11.6085 10.4206C12.2122 10.089 12.6984 9.57845 13.0002 8.95924C13.302 8.34003 13.4045 7.64254 13.2937 6.96268C13.1829 6.28282 12.8642 5.65398 12.3814 5.16265C11.8986 4.67132 11.2754 4.34162 10.5976 4.21891Z" fill="#AFAFAF"/>
<path d="M10.8335 14.9997C10.8335 14.5395 10.4604 14.1664 10.0001 14.1664C9.53991 14.1664 9.16681 14.5395 9.16681 14.9997C9.16681 15.46 9.53991 15.8331 10.0001 15.8331C10.4604 15.8331 10.8335 15.46 10.8335 14.9997Z" fill="#AFAFAF"/>
</g>
<defs>
<clipPath id="clip0_2098_1353">
<rect width="20" height="20" fill="white"/>
</clipPath>
</defs>
</svg>
