<svg width="24" height="25" viewBox="0 0 24 25" fill="none" xmlns="http://www.w3.org/2000/svg">
<path d="M23.5611 21.9452L18.9159 17.2981C22.3916 12.6533 21.4439 6.07034 16.7991 2.59462C12.1544 -0.881104 5.57138 0.0666122 2.09565 4.71139C-1.38007 9.35616 -0.43235 15.9392 4.21242 19.4149C7.94349 22.2069 13.068 22.2069 16.7991 19.4149L21.4463 24.062C22.0302 24.646 22.9771 24.646 23.561 24.062C24.145 23.478 24.145 22.5312 23.561 21.9472L23.5611 21.9452ZM10.5445 18.5179C6.41646 18.5179 3.07005 15.1715 3.07005 11.0435C3.07005 6.91542 6.41646 3.56901 10.5445 3.56901C14.6726 3.56901 18.019 6.91542 18.019 11.0435C18.0146 15.1697 14.6707 18.5136 10.5445 18.5179Z" fill="#585858"/>
</svg>
