<svg width="19" height="18" viewBox="0 0 19 18" fill="none" xmlns="http://www.w3.org/2000/svg">
<path id="Star 2" d="M8.54894 1.42705C8.8483 0.50574 10.1517 0.50574 10.4511 1.42705L11.8574 5.75532C11.9913 6.16734 12.3752 6.4463 12.8085 6.4463H17.3595C18.3282 6.4463 18.731 7.68592 17.9473 8.25532L14.2654 10.9303C13.9149 11.185 13.7683 11.6364 13.9021 12.0484L15.3085 16.3766C15.6078 17.298 14.5533 18.0641 13.7696 17.4947L10.0878 14.8197C9.7373 14.565 9.2627 14.565 8.91221 14.8197L5.23037 17.4947C4.44665 18.0641 3.39217 17.298 3.69153 16.3766L5.09787 12.0484C5.23174 11.6364 5.08508 11.185 4.7346 10.9303L1.05275 8.25532C0.269035 7.68592 0.67181 6.4463 1.64053 6.4463H6.19155C6.62477 6.4463 7.00873 6.16734 7.1426 5.75532L8.54894 1.42705Z" fill="#D9D9D9"/>
</svg>
