<svg width="8" height="8" viewBox="0 0 8 8" fill="none" xmlns="http://www.w3.org/2000/svg">
<path d="M3.3897 0.796668C3.51817 0.401288 4.07753 0.401289 4.20599 0.796669L4.80952 2.65414C4.86698 2.83096 5.03175 2.95068 5.21767 2.95068H7.17073C7.58646 2.95068 7.75931 3.48266 7.42298 3.72702L5.84292 4.875C5.69251 4.98428 5.62957 5.17798 5.68702 5.3548L6.29055 7.21228C6.41902 7.60766 5.96649 7.93644 5.63016 7.69208L4.0501 6.5441C3.89969 6.43482 3.69601 6.43482 3.5456 6.5441L1.96554 7.69208C1.62921 7.93644 1.17668 7.60766 1.30515 7.21228L1.90868 5.3548C1.96613 5.17798 1.90319 4.98428 1.75278 4.875L0.172716 3.72702C-0.163614 3.48266 0.00923806 2.95068 0.424965 2.95068H2.37803C2.56395 2.95068 2.72872 2.83096 2.78617 2.65414L3.3897 0.796668Z" fill="#BF9454"/>
</svg>
