<svg width="28" height="27" viewBox="0 0 28 27" fill="none" xmlns="http://www.w3.org/2000/svg">
<g clip-path="url(#clip0_2132_1610)">
<path d="M18.5051 15.6007H9.49495C8.03057 15.6024 6.62667 16.185 5.59119 17.2204C4.55571 18.2559 3.9732 19.6598 3.97144 21.1242V26.7435H24.0286V21.1242C24.0268 19.6598 23.4443 18.2559 22.4088 17.2204C21.3733 16.185 19.9694 15.6024 18.5051 15.6007Z" fill="#2A9F62"/>
<path d="M13.9999 13.3714C17.6923 13.3714 20.6856 10.3781 20.6856 6.68571C20.6856 2.9933 17.6923 0 13.9999 0C10.3075 0 7.31421 2.9933 7.31421 6.68571C7.31421 10.3781 10.3075 13.3714 13.9999 13.3714Z" fill="#2A9F62"/>
</g>
<defs>
<clipPath id="clip0_2132_1610">
<rect width="26.7429" height="26.7429" fill="white" transform="translate(0.62854)"/>
</clipPath>
</defs>
</svg>
