<svg width="10" height="12" viewBox="0 0 10 12" fill="none" xmlns="http://www.w3.org/2000/svg">
<g id="Subtract">
<path d="M6.15305 8.85304C6.09999 8.88161 6.03878 8.89589 5.9694 8.89589C5.90002 8.89589 5.83778 8.88161 5.78268 8.85304C5.72759 8.82447 5.68371 8.78468 5.65107 8.73367C5.62046 8.68265 5.60515 8.62348 5.60515 8.55614C5.60515 8.4888 5.62046 8.42962 5.65107 8.37861C5.68371 8.32759 5.72759 8.28882 5.78268 8.26229C5.83778 8.23373 5.90002 8.21944 5.9694 8.21944C6.03878 8.21944 6.09999 8.23373 6.15305 8.26229C6.20814 8.28882 6.251 8.32759 6.28161 8.37861C6.31425 8.42962 6.33058 8.4888 6.33058 8.55614C6.33058 8.62348 6.31425 8.68265 6.28161 8.73367C6.251 8.78468 6.20814 8.82447 6.15305 8.85304Z" fill="#01794B"/>
<path fill-rule="evenodd" clip-rule="evenodd" d="M7.01029 2.47039C7.01029 3.20017 6.63649 3.84281 6.06955 4.218C6.19474 4.33388 6.30584 4.47217 6.39738 4.6329L8.98419 9.17435C9.63379 10.3148 8.81018 11.7318 7.4977 11.7318H2.32408C1.0116 11.7318 0.187988 10.3148 0.837589 9.17435L3.42439 4.6329C3.51592 4.47221 3.62699 4.33394 3.75214 4.21808C3.18513 3.8429 2.81128 3.20022 2.81128 2.47039C2.81128 1.31314 3.75126 0.375 4.91078 0.375C6.07031 0.375 7.01029 1.31314 7.01029 2.47039ZM4.91078 3.55033C5.51813 3.55033 6.01049 3.06684 6.01049 2.47043C6.01049 1.87402 5.51813 1.39053 4.91078 1.39053C4.30342 1.39053 3.81106 1.87402 3.81106 2.47043C3.81106 3.06684 4.30342 3.55033 4.91078 3.55033ZM3.51314 8.90705V9.44379H2.91321V7.30118H3.51314V8.1913L4.34264 7.30118H5.00991L4.13513 8.24885L5.05582 9.44379H4.35182L3.73816 8.66595L3.51314 8.90705ZM5.4766 10.0101C5.62148 10.0468 5.7735 10.0651 5.93267 10.0651C6.24283 10.0651 6.4826 9.98965 6.65197 9.83864C6.82134 9.68764 6.90602 9.45501 6.90602 9.14076V7.7848H6.35201V7.98385C6.30857 7.92446 6.25552 7.87749 6.19284 7.84295C6.09285 7.78582 5.97246 7.75725 5.83166 7.75725C5.68474 7.75725 5.54904 7.7899 5.42456 7.8552C5.30213 7.9205 5.20316 8.01334 5.12766 8.13374C5.0542 8.25209 5.01747 8.39289 5.01747 8.55614C5.01747 8.71938 5.0542 8.86121 5.12766 8.9816C5.20316 9.09995 5.30213 9.1928 5.42456 9.26014C5.54904 9.32544 5.68474 9.35809 5.83166 9.35809C5.97246 9.35809 6.09285 9.32952 6.19284 9.27238C6.24283 9.24381 6.28671 9.20759 6.32446 9.16372V9.21729C6.32446 9.34788 6.28977 9.44685 6.22039 9.51419C6.15101 9.58357 6.03776 9.61826 5.88063 9.61826C5.78268 9.61826 5.68167 9.60194 5.5776 9.56929C5.47558 9.53868 5.38987 9.49583 5.32049 9.44073L5.10929 9.84783C5.21132 9.91925 5.33376 9.97332 5.4766 10.0101Z" fill="#01794B"/>
</g>
</svg>
