<svg width="30" height="65" viewBox="0 0 30 65" fill="none" xmlns="http://www.w3.org/2000/svg">
<g id="Frame 1994">
<path id="Vector" d="M6 50.0044C6.00053 49.3408 6.2411 48.7046 6.66881 48.2357L18.3305 35.4345C18.6835 35.0471 18.9635 34.5872 19.1545 34.081C19.3456 33.5749 19.4439 33.0324 19.4439 32.4845C19.4439 31.9366 19.3456 31.3941 19.1545 30.8879C18.9635 30.3817 18.6835 29.9218 18.3305 29.5345L6.68401 16.7416C6.26869 16.2696 6.03887 15.6373 6.04406 14.9811C6.04926 14.3249 6.28905 13.6971 6.71179 13.2331C7.13453 12.769 7.70639 12.5058 8.30422 12.5001C8.90204 12.4944 9.47798 12.7467 9.90801 13.2026L21.5545 25.9854C23.1205 27.7078 24 30.0419 24 32.4753C24 34.9087 23.1205 37.2428 21.5545 38.9652L9.89281 51.7664C9.57439 52.1161 9.16873 52.3545 8.72701 52.4514C8.2853 52.5484 7.82732 52.4995 7.41088 52.311C6.99443 52.1225 6.63819 51.8028 6.38709 51.3923C6.13599 50.9818 6.0013 50.4988 6 50.0044Z" fill="white"/>
</g>
</svg>
