<svg width="24" height="24" viewBox="0 0 24 24" fill="none" xmlns="http://www.w3.org/2000/svg">
<path d="M22.9999 0.99991C22.6561 0.656213 22.1899 0.463135 21.7038 0.463135C21.2176 0.463135 20.7514 0.656213 20.4076 0.99991L11.9999 9.40758L3.59227 0.99991C3.24847 0.656213 2.78224 0.463135 2.29611 0.463135C1.80997 0.463135 1.34374 0.656213 0.999941 0.99991C0.656244 1.34371 0.463165 1.80994 0.463165 2.29608C0.463165 2.78221 0.656244 3.24844 0.999941 3.59224L9.40761 11.9999L0.999941 20.4076C0.656244 20.7514 0.463165 21.2176 0.463165 21.7037C0.463165 22.1899 0.656244 22.6561 0.999941 22.9999C1.34374 23.3436 1.80997 23.5367 2.29611 23.5367C2.78224 23.5367 3.24847 23.3436 3.59227 22.9999L11.9999 14.5922L20.4076 22.9999C20.7514 23.3436 21.2176 23.5367 21.7038 23.5367C22.1899 23.5367 22.6561 23.3436 22.9999 22.9999C23.3436 22.6561 23.5367 22.1899 23.5367 21.7037C23.5367 21.2176 23.3436 20.7514 22.9999 20.4076L14.5923 11.9999L22.9999 3.59224C23.3436 3.24844 23.5367 2.78221 23.5367 2.29608C23.5367 1.80994 23.3436 1.34371 22.9999 0.99991V0.99991Z" fill="#585858"/>
</svg>
