<svg width="24" height="25" viewBox="0 0 24 25" fill="none" xmlns="http://www.w3.org/2000/svg">
<path d="M18.5 2.5H18V2C18 1.60218 17.842 1.22064 17.5607 0.93934C17.2794 0.658035 16.8978 0.5 16.5 0.5V0.5C16.1022 0.5 15.7206 0.658035 15.4393 0.93934C15.158 1.22064 15 1.60218 15 2V2.5H9V2C9 1.60218 8.84196 1.22064 8.56066 0.93934C8.27936 0.658035 7.89782 0.5 7.5 0.5V0.5C7.10218 0.5 6.72064 0.658035 6.43934 0.93934C6.15804 1.22064 6 1.60218 6 2V2.5H5.5C4.04131 2.5 2.64236 3.07946 1.61091 4.11091C0.579463 5.14236 0 6.54131 0 8L0 19C0 20.4587 0.579463 21.8576 1.61091 22.8891C2.64236 23.9205 4.04131 24.5 5.5 24.5H18.5C19.9587 24.5 21.3576 23.9205 22.3891 22.8891C23.4205 21.8576 24 20.4587 24 19V8C24 6.54131 23.4205 5.14236 22.3891 4.11091C21.3576 3.07946 19.9587 2.5 18.5 2.5ZM18.5 21.5H5.5C4.83696 21.5 4.20107 21.2366 3.73223 20.7678C3.26339 20.2989 3 19.663 3 19V10.5H21V19C21 19.663 20.7366 20.2989 20.2678 20.7678C19.7989 21.2366 19.163 21.5 18.5 21.5Z" fill="#585858"/>
</svg>
