<svg width="24" height="25" viewBox="0 0 24 25" fill="none" xmlns="http://www.w3.org/2000/svg">
<g clip-path="url(#clip0_2132_1464)">
<path d="M6.9999 24.5006C8.10447 24.5006 8.9999 23.6052 8.9999 22.5006C8.9999 21.396 8.10447 20.5006 6.9999 20.5006C5.89534 20.5006 4.99991 21.396 4.99991 22.5006C4.99991 23.6052 5.89534 24.5006 6.9999 24.5006Z" fill="#585858"/>
<path d="M17 24.5006C18.1046 24.5006 19 23.6052 19 22.5006C19 21.396 18.1046 20.5006 17 20.5006C15.8954 20.5006 15 21.396 15 22.5006C15 23.6052 15.8954 24.5006 17 24.5006Z" fill="#585858"/>
<path d="M22.984 6.518C22.2801 5.84489 21.3377 5.47875 20.364 5.5H5.654L5.391 3.438C5.2955 2.62869 4.90638 1.88256 4.2974 1.34104C3.68842 0.799518 2.90192 0.500262 2.087 0.5L1.5 0.5C1.10218 0.5 0.720644 0.658035 0.43934 0.93934C0.158035 1.22064 0 1.60218 0 2H0C0 2.39782 0.158035 2.77936 0.43934 3.06066C0.720644 3.34196 1.10218 3.5 1.5 3.5H2.087C2.16881 3.50088 2.24739 3.53202 2.30759 3.58742C2.36779 3.64282 2.40534 3.71855 2.413 3.8L3.913 15.559C4.00761 16.3689 4.39637 17.1159 5.00547 17.6581C5.61456 18.2003 6.40156 18.4999 7.217 18.5H17.339C18.5431 18.4993 19.7136 18.1035 20.671 17.3733C21.6285 16.6432 22.3198 15.619 22.639 14.458L23.885 9.927C24.0511 9.32996 24.0552 8.69945 23.8968 8.1003C23.7385 7.50116 23.4234 6.95501 22.984 6.518ZM19.75 13.663C19.6036 14.1903 19.2887 14.6553 18.8534 14.9869C18.4181 15.3186 17.8863 15.4988 17.339 15.5H7.217C7.13523 15.4993 7.05665 15.4682 6.99657 15.4128C6.93648 15.3573 6.89921 15.2815 6.892 15.2L6.037 8.5H20.514C20.5912 8.49942 20.6676 8.51674 20.737 8.55061C20.8064 8.58448 20.867 8.63396 20.9141 8.69519C20.9612 8.75642 20.9934 8.82772 21.0083 8.90351C21.0233 8.97929 21.0204 9.0575 21 9.132L19.75 13.663Z" fill="#585858"/>
</g>
<defs>
<clipPath id="clip0_2132_1464">
<rect width="24" height="24" fill="white" transform="translate(0 0.5)"/>
</clipPath>
</defs>
</svg>
