<svg width="34" height="34" viewBox="0 0 34 34" fill="none" xmlns="http://www.w3.org/2000/svg">
<g id="fi-br-comment" clip-path="url(#clip0_2777_6459)">
<path id="Vector" d="M33.9608 15.4909C33.7614 12.2739 32.625 9.18556 30.6918 6.60658C28.7585 4.02759 26.1128 2.07068 23.0808 0.977072C20.0489 -0.116538 16.7632 -0.299045 13.6288 0.452049C10.4943 1.20314 7.64821 2.85501 5.4412 5.20401C3.23419 7.55302 1.76278 10.4965 1.20834 13.6716C0.653904 16.8467 1.04067 20.1147 2.32098 23.0726C3.60128 26.0306 5.71915 28.5493 8.41353 30.3182C11.1079 32.0871 14.261 33.029 17.4842 33.0276H26.3983C28.4032 33.0251 30.3253 32.2275 31.743 30.8098C33.1607 29.3921 33.9582 27.47 33.9608 25.4651V15.6201V15.4909ZM29.8358 25.4651C29.8358 26.3768 29.4736 27.2512 28.829 27.8958C28.1843 28.5405 27.31 28.9026 26.3983 28.9026H17.4842C15.7372 28.9016 14.01 28.5323 12.4153 27.819C10.8206 27.1056 9.39421 26.0642 8.22904 24.7625C7.05871 23.4618 6.18002 21.9259 5.6519 20.2578C5.12377 18.5897 4.95841 16.828 5.16691 15.0908C5.4959 12.352 6.72674 9.80054 8.66552 7.83836C10.6043 5.87618 13.1408 4.61482 15.8754 4.253C16.4104 4.18623 16.9491 4.15271 17.4883 4.15263C20.3705 4.14438 23.1638 5.14995 25.3794 6.99338C26.6711 8.06631 27.7319 9.38987 28.4978 10.8842C29.2637 12.3784 29.7189 14.0124 29.8358 15.6875V25.4651Z" fill="#01794B"/>
<path id="Vector_2" d="M14.0239 15.153H18.1489C18.6959 15.153 19.2205 14.9357 19.6073 14.5489C19.9941 14.1621 20.2114 13.6375 20.2114 13.0905C20.2114 12.5434 19.9941 12.0188 19.6073 11.632C19.2205 11.2453 18.6959 11.028 18.1489 11.028H14.0239C13.4769 11.028 12.9523 11.2453 12.5655 11.632C12.1787 12.0188 11.9614 12.5434 11.9614 13.0905C11.9614 13.6375 12.1787 14.1621 12.5655 14.5489C12.9523 14.9357 13.4769 15.153 14.0239 15.153Z" fill="#01794B"/>
<path id="Vector_3" d="M23.6489 17.9026H14.0239C13.4769 17.9026 12.9523 18.1199 12.5655 18.5067C12.1787 18.8935 11.9614 19.4181 11.9614 19.9651C11.9614 20.5121 12.1787 21.0367 12.5655 21.4235C12.9523 21.8103 13.4769 22.0276 14.0239 22.0276H23.6489C24.1959 22.0276 24.7205 21.8103 25.1073 21.4235C25.4941 21.0367 25.7114 20.5121 25.7114 19.9651C25.7114 19.4181 25.4941 18.8935 25.1073 18.5067C24.7205 18.1199 24.1959 17.9026 23.6489 17.9026Z" fill="#01794B"/>
</g>
<defs>
<clipPath id="clip0_2777_6459">
<rect width="33" height="33" fill="white" transform="translate(0.961182 0.027771)"/>
</clipPath>
</defs>
</svg>
