<svg width="19" height="19" viewBox="0 0 19 19" fill="none" xmlns="http://www.w3.org/2000/svg">
<path d="M11 18.9355C10.8299 18.9355 10.6645 18.8804 10.5285 18.7784L7.38566 16.4212C7.28808 16.348 7.20888 16.2531 7.15433 16.144C7.09978 16.0349 7.07138 15.9146 7.07138 15.7927V11.3769L1.55881 5.1753C1.1673 4.73363 0.911676 4.1883 0.822656 3.60484C0.733635 3.02138 0.815006 2.42463 1.05699 1.88631C1.29897 1.34799 1.69127 0.891001 2.18673 0.570278C2.6822 0.249555 3.25974 0.0787419 3.84995 0.0783691L15.0071 0.0783691C15.5973 0.0790614 16.1747 0.250157 16.6699 0.571096C17.1652 0.892035 17.5572 1.34916 17.799 1.88754C18.0407 2.42593 18.1218 3.02266 18.0325 3.60603C17.9433 4.1894 17.6875 4.73459 17.2959 5.17608L11.7857 11.3769V18.1498C11.7857 18.3582 11.7029 18.558 11.5555 18.7054C11.4082 18.8527 11.2083 18.9355 11 18.9355V18.9355Z" fill="#262626"/>
</svg>
