<svg width="24" height="25" viewBox="0 0 24 25" fill="none" xmlns="http://www.w3.org/2000/svg">
<path d="M3.01 11.72V16.21C3.01 20.7 4.81 22.5 9.3 22.5H14.69C19.18 22.5 20.98 20.7 20.98 16.21V11.72" stroke="#585858" stroke-width="2.5" stroke-linecap="round" stroke-linejoin="round"/>
<path d="M12 12.5C13.83 12.5 15.18 11.01 15 9.18L14.34 2.5H9.67L9 9.18C8.82 11.01 10.17 12.5 12 12.5Z" stroke="#585858" stroke-width="2.5" stroke-linecap="round" stroke-linejoin="round"/>
<path d="M18.31 12.5C20.33 12.5 21.81 10.86 21.61 8.85L21.33 6.1C20.97 3.5 19.97 2.5 17.35 2.5H14.3L15 9.51C15.17 11.16 16.66 12.5 18.31 12.5Z" stroke="#585858" stroke-width="2.5" stroke-linecap="round" stroke-linejoin="round"/>
<path d="M5.64 12.5C7.29 12.5 8.78 11.16 8.94 9.51L9.16 7.3L9.64 2.5H6.59C3.97 2.5 2.97 3.5 2.61 6.1L2.34 8.85C2.14 10.86 3.62 12.5 5.64 12.5Z" stroke="#585858" stroke-width="2.5" stroke-linecap="round" stroke-linejoin="round"/>
<path d="M12 17.5C10.33 17.5 9.5 18.33 9.5 20V22.5H14.5V20C14.5 18.33 13.67 17.5 12 17.5Z" stroke="#585858" stroke-width="2.5" stroke-linecap="round" stroke-linejoin="round"/>
</svg>
