<svg width="24" height="25" viewBox="0 0 24 25" fill="none" xmlns="http://www.w3.org/2000/svg">
<g clip-path="url(#clip0_2132_1722)">
<path d="M21 24.5006H18V19.5006C18 18.9702 17.7893 18.4615 17.4142 18.0864C17.0391 17.7113 16.5304 17.5006 16 17.5006H8C7.46957 17.5006 6.96086 17.7113 6.58579 18.0864C6.21071 18.4615 6 18.9702 6 19.5006V24.5006H3V19.5006C3.00159 18.175 3.52888 16.9042 4.46622 15.9668C5.40356 15.0295 6.67441 14.5022 8 14.5006H16C17.3256 14.5022 18.5964 15.0295 19.5338 15.9668C20.4711 16.9042 20.9984 18.175 21 19.5006V24.5006Z" fill="#585858"/>
<path d="M12 12.4999C10.8134 12.4999 9.65332 12.148 8.66663 11.4888C7.67993 10.8295 6.9109 9.8924 6.45677 8.79604C6.00265 7.69969 5.88383 6.49329 6.11534 5.3294C6.34685 4.16551 6.91829 3.09642 7.75741 2.2573C8.59652 1.41819 9.66562 0.846741 10.8295 0.61523C11.9934 0.383719 13.1998 0.502539 14.2961 0.956664C15.3925 1.41079 16.3296 2.17983 16.9889 3.16652C17.6482 4.15321 18 5.31325 18 6.49994C17.9985 8.09075 17.3658 9.61595 16.2409 10.7408C15.1161 11.8657 13.5909 12.4984 12 12.4999ZM12 3.49994C11.4067 3.49994 10.8267 3.67589 10.3333 4.00553C9.83999 4.33518 9.45547 4.80371 9.22841 5.35189C9.00135 5.90007 8.94194 6.50327 9.05769 7.08521C9.17345 7.66716 9.45917 8.2017 9.87873 8.62126C10.2983 9.04082 10.8328 9.32654 11.4148 9.4423C11.9967 9.55805 12.5999 9.49864 13.1481 9.27158C13.6963 9.04452 14.1648 8.66 14.4945 8.16665C14.8241 7.67331 15 7.09329 15 6.49994C15 5.70429 14.684 4.94123 14.1214 4.37862C13.5588 3.81601 12.7957 3.49994 12 3.49994Z" fill="#585858"/>
</g>
<defs>
<clipPath id="clip0_2132_1722">
<rect width="24" height="24" fill="white" transform="translate(0 0.5)"/>
</clipPath>
</defs>
</svg>
